


<svg xmlns="http://www.w3.org/2000/svg" xml:space="preserve" width="2048" height="2048" style="shape-rendering:geometricPrecision;text-rendering:geometricPrecision;image-rendering:optimizeQuality;fill-rule:evenodd;clip-rule:evenodd"><defs><style>.fil1{fill:#fffffe}</style></defs><g id="Layer_x0020_1"><rect width="2048" height="2048" rx="256" ry="256" style="fill:#ff5722"/><path class="fil1" d="M797 572c34 18 65 42 91 70-14 13-27 27-39 41-60 72-95 160-95 256 0 72 20 140 56 200 10 16 20 32 32 47-22 17-47 31-73 42-45 20-95 31-147 31-17 0-34-1-50-3-11-2-23-4-34-6l-179 150c-12 10-30 8-40-3-7-8-8-18-5-27l66-201c-37-33-67-72-88-115-24-50-37-105-37-160 0-101 41-192 107-258s158-107 259-107c63 0 123 16 175 44zM558 798c21 0 37 6 51 17 2 1 3 3 5 4 2-2 3-3 5-4 14-11 30-17 51-17 23 0 44 9 60 25 15 15 25 36 25 60 0 68-60 128-121 188-11 11-29 11-40 0-1-1-1-1-1-2-60-60-119-119-119-186 0-23 9-44 25-60 15-15 37-25 60-25zm76 272z"/><path class="fil1" d="M1792 939c0 63-18 127-52 184-29 49-70 94-123 132l17 42 76 189c3 8 3 18-3 27-9 13-27 16-40 7l-257-177c-18 4-36 7-54 9-22 3-45 4-68 4-138 0-263-46-353-120-92-76-149-180-149-296s57-221 149-296c91-74 216-120 353-120 278 0 503 187 503 417zm-503-114c4-4 8-7 12-10 18-13 38-19 65-19 30 0 57 11 76 29 20 18 32 42 32 70 0 42-22 83-54 122-30 37-69 73-109 108-12 11-32 11-44 0-39-36-78-72-109-108-33-40-54-80-54-122 0-27 12-52 32-70s47-29 76-29c27 0 47 6 65 19 4 3 8 6 12 10z"/></g></svg>